<?xml version="1.0" encoding="UTF-8"?>
<!DOCTYPE svg PUBLIC "-//W3C//DTD SVG 1.1//EN" "http://www.w3.org/Graphics/SVG/1.1/DTD/svg11.dtd">
<!-- Creator: CorelDRAW Home & Student X7 -->
<svg xmlns="http://www.w3.org/2000/svg" xml:space="preserve" width="50.8mm" height="50.8mm" version="1.1" style="shape-rendering:geometricPrecision; text-rendering:geometricPrecision; image-rendering:optimizeQuality; fill-rule:evenodd; clip-rule:evenodd"
viewBox="0 0 5080 5080"
 xmlns:xlink="http://www.w3.org/1999/xlink">
 <defs>
  <style type="text/css">
   <![CDATA[
    .fil0 {fill:black}
   ]]>
  </style>
 </defs>
 <g id="Plan_x0020_1">
  <metadata id="CorelCorpID_0Corel-Layer"/>
  <g id="_375992568">
   <path class="fil0" d="M4128 403c-395,0 -790,0 -1185,0 -608,0 -499,29 -942,262 -108,57 -277,180 -410,184 -199,5 -411,-1 -612,-1 -212,-1 -344,-6 -395,197 -56,221 42,322 182,402 -70,243 -343,1048 -343,1253 0,385 -19,1864 14,2132l115 21c259,22 2687,-11 3225,0l112 -18c49,-277 17,-1724 17,-2116 0,-284 -255,-888 -321,-1206 226,-18 364,-151 393,-369l151 0 13 206c199,35 507,27 710,2 38,-210 31,-858 3,-1081 -200,-35 -379,-17 -597,-16 -129,0 -129,24 -130,148zm148 815l445 0 0 -815 -445 0 0 815zm-2285 -372c226,6 1016,-26 1157,19 38,124 -95,201 -170,277 -197,197 -467,387 -368,556 128,221 393,-47 578,-197 130,-105 131,-133 348,-134 166,-1 254,-56 287,-195 51,-214 64,-176 305,-176l0 -445c-401,0 -803,0 -1204,0 -244,0 -349,-30 -540,72 -131,69 -283,141 -393,223zm-1142 446l1705 0c97,0 135,-76 187,-128 58,-58 111,-106 162,-164 -350,-23 -1612,-4 -2054,-4 -182,0 -182,296 0,296zm2428 3403l73 7 224 -1 70 -3 -180 -183 -187 180zm-108 -108c300,-258 218,-213 218,-831 0,-194 -21,-917 17,-1039l114 -7c39,132 14,1270 16,1566 1,128 71,181 220,311 19,-243 4,-1283 4,-1609 0,-365 -16,-385 -109,-707 -33,-114 -144,-547 -188,-618 -41,63 -152,493 -185,602 -95,306 -111,354 -111,704 0,340 -17,1371 4,1628zm-2598 114l2446 0c0,-568 0,-1136 0,-1705 0,-384 12,-411 105,-746 36,-129 183,-555 183,-651 -22,26 -377,320 -510,331 -276,24 -418,-224 -318,-487l-1557 -3c-111,473 -349,971 -349,1445 1,605 0,1211 0,1816z"/>
   <path class="fil0" d="M1016 2682c0,475 62,282 135,531 92,306 -295,1117 217,1117 582,0 150,-766 254,-1117 57,-196 182,-150 121,-645l-117 -6c-28,161 -21,115 -17,286l-148 0 -14 -280 -118 -6c-28,161 -20,115 -17,286l-148 0 -14 -280c-107,-31 -134,-5 -134,114zm296 463l182 -2 67 -145 -346 -2c22,63 40,125 97,149zm-46 1026l241 7c38,-128 -31,-706 -41,-885l-160 5c-13,182 -78,753 -40,873z"/>
   <path class="fil0" d="M1975 3482c8,173 -94,608 -27,731 101,184 496,167 530,-70 21,-150 -55,-556 -54,-758 0,-171 20,-698 -17,-816 -343,-106 -511,383 -557,650 -34,194 -36,194 125,263zm12 -147c38,10 30,2 73,26 43,24 40,33 49,42 53,49 42,38 167,38l-1 -724c-176,78 -270,358 -288,618zm99 832c67,18 164,18 231,0 34,-106 -19,-428 -33,-567l-165 -8c-15,153 -69,462 -33,575z"/>
  </g>
 </g>
</svg>
