<?xml version="1.0" encoding="UTF-8"?>
<!DOCTYPE svg PUBLIC "-//W3C//DTD SVG 1.1//EN" "http://www.w3.org/Graphics/SVG/1.1/DTD/svg11.dtd">
<!-- Creator: CorelDRAW Home & Student X7 -->
<svg xmlns="http://www.w3.org/2000/svg" xml:space="preserve" width="50.8mm" height="50.8mm" version="1.1" style="shape-rendering:geometricPrecision; text-rendering:geometricPrecision; image-rendering:optimizeQuality; fill-rule:evenodd; clip-rule:evenodd"
viewBox="0 0 5080 5080"
 xmlns:xlink="http://www.w3.org/1999/xlink">
 <defs>
  <style type="text/css">
   <![CDATA[
    .fil0 {fill:black}
    .fil1 {fill:#686A6A}
   ]]>
  </style>
 </defs>
 <g id="Plan_x0020_1">
  <metadata id="CorelCorpID_0Corel-Layer"/>
  <g id="_378888864">
   <path class="fil0" d="M4933 3959l0 161 -130 41c-19,166 -40,290 -125,388 -73,84 -165,157 -302,187 -380,85 -523,-178 -633,-330l-160 5c-9,-20 -15,-51 -22,-67 -23,-49 -2,-34 -45,-57l-1417 0c-60,34 -31,20 -58,100 -208,610 -1072,519 -1165,-100 -98,-1 -88,1 -154,-31 -30,-130 16,-218 0,-361 -12,-123 -14,-247 9,-364 11,-56 25,-104 42,-149 85,-222 -40,63 -44,-440 -170,-34 -380,35 -507,-59 -131,-97 -107,-279 -107,-460 0,-466 -93,-818 282,-832 184,-6 383,1 568,1 205,0 360,-19 444,123 79,133 40,867 38,1077l304 0c-55,-451 45,-1020 347,-1371 46,-53 80,-64 122,-113 -293,-416 -173,-872 210,-1030 425,-175 906,220 814,608 -40,25 -68,24 -103,44 12,296 -142,499 -390,544 13,85 23,142 29,232 9,123 13,96 90,154 154,117 72,75 381,103 419,37 818,-404 823,5 4,395 34,372 -150,391 19,144 149,396 109,522 -174,33 -144,-161 -265,-524l-189 -2c6,103 75,302 97,438 99,634 -84,886 -215,1351l134 0 384 -446c87,-100 157,-90 101,-271 -30,-97 -104,-246 -58,-327 152,-98 163,263 227,383 63,27 173,28 249,55 293,102 342,295 435,421zm-3626 -1744l-5 70 -1042 -1 -4 -138 66 -15 986 3 -1 81zm0 -321l0 98 -1050 0c-1,-332 -5,-259 878,-259 142,0 172,20 172,161zm-2 898c-155,0 -975,37 -1032,-53 -28,-98 -21,-212 -12,-313l1044 0 0 366zm-284 1495l899 0c-104,497 -816,484 -899,0zm1083 -142l-1250 0c96,-748 1160,-751 1250,0zm1039 -322l-506 0 4 -170c105,0 227,-6 327,0 127,8 155,55 175,170zm271 -1468c229,515 130,1431 -12,1468l-116 0c-16,-175 -90,-268 -245,-301 0,-517 48,-813 -370,-1005l47 -187c143,52 514,24 696,25zm-922 819c-143,0 -523,-29 -612,30l-5 80c95,60 475,31 618,31 79,753 -290,649 878,649l-64 178 -1060 3c-72,-727 -932,-952 -1389,-405 -9,-158 38,-323 103,-425 159,0 613,28 719,-24l6 -93c-102,-48 -513,-23 -685,-23 -149,1 -131,-11 -129,-241l887 0c224,0 -42,132 606,128 125,-1 134,-15 127,112zm1402 1189l762 -174c-23,531 -662,515 -762,174zm893 -347l-1097 249c20,-68 386,-453 478,-567 92,-111 266,-46 376,20 95,56 209,162 243,298zm-1896 -950l0 441 -242 0c0,-124 24,-313 -21,-411 -10,-213 -208,-173 -397,-174 -242,-2 -336,-37 -353,-278 474,0 1008,-126 1013,422zm1040 -853l-340 0 -21 -154 361 -113 0 267zm-486 -88l0 71c-58,28 -136,19 -207,14l-1 -103 208 18zm-356 -31l6 114c-266,29 -269,12 -439,-96 -91,-58 -293,-144 -267,-269 53,-246 398,143 471,197 73,54 126,38 229,54zm-484 -597l33 157c-439,-116 -596,319 -48,579l-60 263 -649 7c17,-418 107,-775 389,-1044 63,-60 71,-57 153,-23 57,24 130,33 182,61zm0 -153l2 -429c99,0 212,-6 307,-2 36,1 139,-27 73,188 -50,160 -170,247 -382,243zm496 -570c-663,0 -640,-125 -640,521 -299,-110 -351,-609 -108,-809 304,-251 744,-32 748,288z"/>
   <path class="fil1" d="M2628 3096c45,98 21,287 21,411l242 0 0 -441c39,79 26,340 12,445 -74,29 -193,30 -267,-1l-8 -414z"/>
  </g>
 </g>
</svg>
