<?xml version="1.0" encoding="UTF-8"?>
<!DOCTYPE svg PUBLIC "-//W3C//DTD SVG 1.1//EN" "http://www.w3.org/Graphics/SVG/1.1/DTD/svg11.dtd">
<!-- Creator: CorelDRAW Home & Student X7 -->
<svg xmlns="http://www.w3.org/2000/svg" xml:space="preserve" width="50.8mm" height="50.8mm" version="1.1" style="shape-rendering:geometricPrecision; text-rendering:geometricPrecision; image-rendering:optimizeQuality; fill-rule:evenodd; clip-rule:evenodd"
viewBox="0 0 5080 5080"
 xmlns:xlink="http://www.w3.org/1999/xlink">
 <defs>
  <style type="text/css">
   <![CDATA[
    .fil0 {fill:black}
   ]]>
  </style>
 </defs>
 <g id="Plan_x0020_1">
  <metadata id="CorelCorpID_0Corel-Layer"/>
  <g id="_375985704">
   <path class="fil0" d="M1112 3873c54,22 -3,-8 34,21 230,175 254,236 594,393 829,382 1680,185 2351,-394 3,-3 8,-7 11,-10l24 -18c153,173 225,577 392,751 191,202 625,66 412,-393 -121,-261 -241,-510 -365,-770 -86,-181 1,-202 68,-394 53,-155 90,-299 110,-470 153,-1315 -888,-2401 -2143,-2390 -1236,10 -2271,1093 -2104,2409 21,163 57,301 109,451 25,73 49,131 83,196 55,106 60,89 5,199 -129,254 -250,502 -376,759 -248,506 242,598 402,421 97,-107 285,-580 393,-761zm-22 -752c-63,29 -330,610 -383,719l-274 566c-22,83 37,159 128,112 62,-32 472,-928 560,-1101 28,-53 76,-139 88,-191 18,-82 -53,-136 -119,-105zm853 -1070l-466 -221c13,277 277,405 466,221zm-1114 1087c113,-103 38,-154 266,-210l46 -12c31,-9 296,-602 332,-679 -83,-123 -213,-195 -180,-448 13,-103 141,-358 187,-450 22,-43 82,-188 107,-211 72,-65 171,-14 151,95 -18,91 -160,318 -195,433l162 73c40,-67 98,-195 133,-274 42,-95 75,-251 208,-173 92,96 -122,379 -159,526l153 76c184,-272 139,-529 355,-447 50,122 -120,399 -202,578 -94,206 -250,318 -542,299 -29,38 -318,651 -320,674 -8,80 136,130 35,358 -52,118 -128,224 -163,349 89,77 166,150 272,224 580,405 1338,503 1971,187 375,-187 333,-221 593,-411 -26,-115 -169,-397 -236,-448 -99,-75 -162,-6 -224,-111 -43,-72 -68,-155 -110,-223 -33,33 -36,46 -61,74 -381,428 -942,498 -1408,165 -75,-53 -116,-86 -91,-196 209,-99 163,173 634,215 484,43 866,-364 807,-528 -37,-101 -102,-214 -150,-318 -133,-289 -204,-351 -170,-722 -92,-29 -149,-70 -266,-89 -101,-17 -262,5 -233,-128 40,-185 477,15 571,44 35,-32 231,-299 360,-245 100,41 790,1670 944,1922 142,-175 184,-755 150,-1020 -221,-1726 -2467,-2355 -3536,-873 -286,397 -412,929 -328,1443 31,193 98,324 137,481zm2553 -1726c-106,47 -193,216 -182,394 8,141 277,673 352,836 280,607 175,284 394,480 155,139 628,1301 712,1374 66,57 152,25 153,-64 1,-57 -59,-149 -87,-208 -162,-343 -1283,-2746 -1342,-2812z"/>
   <path class="fil0" d="M1728 2790l107 5c52,-83 53,-87 1,-165l-110 -6c-51,85 -51,89 2,166z"/>
  </g>
 </g>
</svg>
